<svg class="icon" style="width: 1em;height: 1em;vertical-align: middle;fill: currentColor;overflow: hidden;" viewBox="0 0 1024 1024" version="1.1" xmlns="http://www.w3.org/2000/svg" p-id="9675"><path d="M512 0a512 512 0 1 1 0 1024A512 512 0 0 1 512 0z m0 73.142857a438.857143 438.857143 0 1 0 0 877.714286A438.857143 438.857143 0 0 0 512 73.142857z m50.834286 150.674286a36.571429 36.571429 0 0 1 29.622857 42.422857l-88.868572 504.246857a36.571429 36.571429 0 0 1-72.045714-12.726857l88.868572-504.246857a36.571429 36.571429 0 0 1 42.422857-29.622857zM341.430857 382.317714a36.571429 36.571429 0 0 1 0 51.785143l-77.531428 77.531429 77.531428 77.531428a36.571429 36.571429 0 0 1-51.712 51.785143L186.221714 537.453714a36.571429 36.571429 0 0 1 0-51.712l103.497143-103.497143a36.571429 36.571429 0 0 1 51.712 0z m388.827429-4.169143l5.12 4.169143 103.424 103.497143a36.571429 36.571429 0 0 1 4.242285 46.665143l-4.242285 5.046857-103.424 103.424a36.571429 36.571429 0 0 1-55.954286-46.665143l4.169143-5.12 77.604571-77.531428-77.531428-77.531429a36.571429 36.571429 0 0 1 46.592-55.954286z" fill="#d81e06" p-id="9676"></path></svg>